<?xml version="1.0" standalone="no"?><!DOCTYPE svg PUBLIC "-//W3C//DTD SVG 1.1//EN" "http://www.w3.org/Graphics/SVG/1.1/DTD/svg11.dtd"><svg t="1706584486331" class="icon" viewBox="0 0 1024 1024" version="1.1" xmlns="http://www.w3.org/2000/svg" p-id="6987" xmlns:xlink="http://www.w3.org/1999/xlink" width="200" height="200"><path d="M369.438 678.288l64.9 86.491h22.085l151.056-159.028L726.801 764.78h71.447L607.479 513.58 445.38 688.83l-75.942-103.484L233.094 764.78h71.447l64.897-86.492z m-95.2-405.627h63.7v63.699h-63.7V272.66z m110.817 0h365.598v63.699H385.055V272.66zM274.238 400.058h63.7v62.823h-63.7v-62.823z m110.817 0h365.598v62.823H385.055v-62.823zM892.88 257.394c0-70.118-56.84-126.957-126.96-126.957H258.098c-70.118 0-126.959 56.84-126.959 126.957v507.818c0 70.12 56.84 126.96 126.959 126.96H765.92c70.12 0 126.96-56.84 126.96-126.96V257.394z m-43.107 498.864c0 50.774-41.159 91.935-91.933 91.935H267.052c-50.774 0-91.934-41.16-91.934-91.935V265.48c0-50.772 41.16-91.939 91.934-91.939H757.84c50.774 0 91.933 41.167 91.933 91.94v490.778z m-19.718-14.342" p-id="6988" fill="#44566C"></path></svg>